<svg width="264" height="51" viewBox="0 0 264 51" fill="none" xmlns="http://www.w3.org/2000/svg">
<path d="M53.244 4.868H84.252V1.4H53.244C50.864 1.4 50.864 4.936 53.244 4.868ZM84.252 49V45.532H53.244C50.864 45.532 50.864 49.068 53.244 49H84.252ZM84.252 26.9V23.364L61.132 23.432C58.752 23.364 58.752 26.9 61.132 26.9H84.252Z" fill="url(#paint0_linear_2_3297)"/>
<path d="M99.9014 48.3259C99.4344 48.3259 99.2009 48.3259 99.2009 48.3259C99.2009 48.3259 98.9674 48.1358 98.5004 47.7556C98.1668 47.4099 98 46.9259 98 46.3037V2.28148C98 1.69383 98.1835 1.20988 98.5504 0.829628L99.0508 0.259259H99.9014C100.468 0.259259 100.919 0.466667 101.252 0.881482C101.619 1.26173 101.803 1.72839 101.803 2.28148V44.3333H122.868C123.402 44.3333 123.852 44.5235 124.219 44.9037C124.586 45.284 124.77 45.7506 124.77 46.3037C124.77 46.8568 124.586 47.3235 124.219 47.7037L123.669 48.3259H99.9014Z" fill="url(#paint1_linear_2_3297)"/>
<path d="M172.474 45.6296C172.674 46.1482 172.774 46.4074 172.774 46.4074C172.774 46.4074 172.674 46.6667 172.474 47.1852C172.107 48.0148 171.523 48.4296 170.723 48.4296C169.822 48.4296 169.221 48.0148 168.921 47.1852L153.06 7.57037L137.248 47.1852C136.915 48.0148 136.314 48.4296 135.447 48.4296C135.08 48.4296 134.73 48.3259 134.396 48.1185C134.063 47.8765 133.829 47.5654 133.696 47.1852C133.462 46.6667 133.462 46.1482 133.696 45.6296L151.308 1.55555C151.342 1.48642 151.358 1.43457 151.358 1.4C151.392 1.33086 151.425 1.26173 151.459 1.19259L151.709 0.881482C151.775 0.881482 151.825 0.82963 151.859 0.725926C151.892 0.691358 151.926 0.674075 151.959 0.674075L152.009 0.622223C152.209 0.483952 152.443 0.397531 152.709 0.362961H152.86C152.893 0.328394 152.943 0.31111 153.01 0.31111H153.06C153.16 0.31111 153.226 0.328394 153.26 0.362961H153.41C153.677 0.397531 153.927 0.483952 154.16 0.622223L154.261 0.725926C154.361 0.82963 154.427 0.881482 154.461 0.881482L154.711 1.19259C154.744 1.26173 154.761 1.33086 154.761 1.4C154.794 1.43457 154.828 1.48642 154.861 1.55555L172.474 45.6296Z" fill="url(#paint2_linear_2_3297)"/>
<path d="M185.131 0.933334H199.841C201.609 0.933334 203.294 1.24444 204.895 1.86667C206.53 2.48889 207.964 3.37037 209.198 4.51111C210.466 5.65185 211.467 7.01728 212.201 8.60741C212.968 10.163 213.351 11.9086 213.351 13.8444V16.3333L212.501 18.5111C211.6 20.6889 210.232 22.5037 208.398 23.9556C206.563 25.3728 204.478 26.2716 202.143 26.6519L187.082 26.8074V46.6667C187.082 47.2198 186.899 47.6864 186.532 48.0667C186.165 48.4469 185.698 48.637 185.131 48.637C184.597 48.637 184.147 48.4642 183.78 48.1185C183.413 47.7383 183.229 47.2543 183.229 46.6667V22.8148H200.042C201.243 22.8148 202.41 22.5901 203.544 22.1407C204.712 21.6914 205.746 21.0691 206.646 20.2741L207.947 19.1333L208.748 17.4741C209.282 16.4025 209.549 15.1926 209.549 13.8444C209.549 12.4963 209.265 11.2864 208.698 10.2148C208.164 9.10864 207.447 8.15803 206.546 7.36296C205.646 6.5679 204.612 5.96296 203.444 5.54815C202.277 5.09876 201.076 4.87407 199.841 4.87407H183.229V2.9037C183.229 2.31605 183.396 1.84938 183.73 1.5037C184.097 1.12346 184.564 0.933334 185.131 0.933334ZM209.649 49C208.815 49 208.398 49 208.398 49C208.398 49 208.248 48.6198 207.947 47.8593L199.091 29.2963H203.394L211.35 46.1481C211.617 46.6321 211.65 47.1333 211.45 47.6519L211.25 48.2222L210.749 48.637C210.416 48.879 210.049 49 209.649 49Z" fill="url(#paint3_linear_2_3297)"/>
<path d="M243.835 25.2519C243.268 25.2519 242.985 25.2519 242.985 25.2519C242.985 25.2519 242.801 25.0617 242.434 24.6815C242.067 24.3012 241.884 23.8173 241.884 23.2296C241.884 22.642 242.067 22.158 242.434 21.7778C242.835 21.3975 243.302 21.2074 243.835 21.2074H262.049C262.582 21.2074 263.033 21.3975 263.4 21.7778C263.8 22.158 264 22.642 264 23.2296V40.237C264 40.5136 263.917 40.8247 263.75 41.1704C263.616 41.516 263.45 41.7753 263.249 41.9481C258.813 46.1309 253.592 48.2222 247.588 48.2222C244.386 48.2222 241.367 47.6 238.531 46.3556C235.696 45.0765 233.228 43.3481 231.126 41.1704C229.024 38.9926 227.357 36.4519 226.122 33.5481C224.921 30.6099 224.321 27.4642 224.321 24.1111C224.321 20.758 224.921 17.6296 226.122 14.7259C227.357 11.7877 229.024 9.22963 231.126 7.05185C233.228 4.87407 235.679 3.16296 238.481 1.91852C241.317 0.639506 244.352 0 247.588 0C252.892 0 257.612 1.65926 261.748 4.97778C262.149 5.28889 262.399 5.73827 262.499 6.32592L262.599 7.20741L262.099 7.82963C261.665 8.38272 261.148 8.65926 260.547 8.65926C260.147 8.65926 259.764 8.5037 259.397 8.19259C255.827 5.42716 251.891 4.04445 247.588 4.04445C244.886 4.04445 242.368 4.58025 240.033 5.65185C237.697 6.68889 235.646 8.12346 233.878 9.95556C232.143 11.7531 230.776 13.879 229.775 16.3333C228.774 18.7531 228.274 21.3457 228.274 24.1111C228.274 26.9111 228.774 29.5383 229.775 31.9926C230.776 34.4123 232.143 36.5383 233.878 38.3704C235.646 40.1679 237.697 41.5852 240.033 42.6222C242.368 43.6593 244.886 44.1778 247.588 44.1778C252.358 44.1778 256.528 42.5877 260.097 39.4074V25.2519H243.835Z" fill="url(#paint4_linear_2_3297)"/>
<path d="M10.1887 25.6912V21.8268H29.1194C34.153 21.8268 38.1232 17.8193 38.1232 12.7383C38.1232 7.65727 34.153 3.64973 29.1194 3.64973H4.67688C4.12336 3.64973 3.67513 4.09937 3.67689 4.65289L3.81469 48.1809C3.81804 49.2367 2.96311 50.0943 1.90735 50.0943V50.0943C0.85395 50.0943 0 49.2403 0 48.1869V2C0 0.89543 0.89543 0 2 0H29.1194C36.0672 0 41.7388 5.72507 41.7388 12.7383C41.7388 17.0321 39.6828 20.7534 36.4926 23.1149C41.4552 25.1903 45 30.1997 45 36.0679C45 43.7967 38.7612 50.0943 31.1045 50.0943H9.82636C8.16951 50.0943 6.82636 48.7512 6.82636 47.0943V8.79245C6.82636 7.68788 7.72179 6.79245 8.82636 6.79245H28.0189C28.9567 6.79245 29.717 7.55272 29.717 8.49056V8.49056C29.717 9.4284 28.9567 10.1887 28.0189 10.1887H11.1887C10.6364 10.1887 10.1887 10.6364 10.1887 11.1887V27.5943V45.4446C10.1887 45.9969 10.6364 46.4446 11.1887 46.4446H31.1045C36.847 46.4446 41.3843 41.793 41.3843 36.0679C41.3843 30.2713 36.847 25.6912 31.1045 25.6912H10.1887Z" fill="url(#paint5_linear_2_3297)"/>
<defs>
<linearGradient id="paint0_linear_2_3297" x1="85.9886" y1="35.1351" x2="62.4698" y2="35.934" gradientUnits="userSpaceOnUse">
<stop stop-color="#D4AF37"/>
<stop offset="0.965" stop-color="#780000"/>
</linearGradient>
<linearGradient id="paint1_linear_2_3297" x1="91.9217" y1="34.4324" x2="230.397" y2="63.9425" gradientUnits="userSpaceOnUse">
<stop stop-color="#D4AF37"/>
<stop offset="0.965" stop-color="#780000"/>
</linearGradient>
<linearGradient id="paint2_linear_2_3297" x1="91.9217" y1="34.4324" x2="230.397" y2="63.9425" gradientUnits="userSpaceOnUse">
<stop stop-color="#D4AF37"/>
<stop offset="0.965" stop-color="#780000"/>
</linearGradient>
<linearGradient id="paint3_linear_2_3297" x1="91.9217" y1="34.4324" x2="230.397" y2="63.9425" gradientUnits="userSpaceOnUse">
<stop stop-color="#D4AF37"/>
<stop offset="0.965" stop-color="#780000"/>
</linearGradient>
<linearGradient id="paint4_linear_2_3297" x1="91.9217" y1="34.4324" x2="230.397" y2="63.9425" gradientUnits="userSpaceOnUse">
<stop stop-color="#D4AF37"/>
<stop offset="0.965" stop-color="#780000"/>
</linearGradient>
<linearGradient id="paint5_linear_2_3297" x1="-1.64773" y1="35.2014" x2="37.4707" y2="37.4119" gradientUnits="userSpaceOnUse">
<stop stop-color="#D4AF37"/>
<stop offset="0.965" stop-color="#780000"/>
</linearGradient>
</defs>
</svg>
