<svg width="174" height="37" viewBox="0 0 174 37" fill="none" xmlns="http://www.w3.org/2000/svg">
<path d="M13.5265 18.4997V16.7477H22.1091C24.3912 16.7477 26.1911 14.9308 26.1911 12.6272C26.1911 10.3236 24.3912 8.50673 22.1091 8.50673H11.5759C11.0224 8.50673 10.5742 8.95638 10.576 9.5099L10.6367 28.6959C10.6382 29.1745 10.2506 29.5633 9.77196 29.5633V29.5633C9.29438 29.5633 8.90723 29.1762 8.90723 28.6986V8.85205C8.90723 7.74748 9.80266 6.85205 10.9072 6.85205H22.1091C25.259 6.85205 27.8304 9.44763 27.8304 12.6272C27.8304 14.5739 26.8983 16.261 25.4519 17.3317C27.7018 18.2726 29.3089 20.5437 29.3089 23.2042C29.3089 26.7082 26.4804 29.5633 23.0091 29.5633H15.0021C13.3452 29.5633 12.0021 28.2202 12.0021 26.5633V11.9315C12.0021 10.827 12.8975 9.93155 14.0021 9.93155H21.6102C22.0354 9.93155 22.38 10.2762 22.38 10.7014V10.7014C22.38 11.1266 22.0354 11.4713 21.6102 11.4713H14.5265C13.9742 11.4713 13.5265 11.919 13.5265 12.4713V19.3625V26.9087C13.5265 27.4609 13.9742 27.9087 14.5265 27.9087H23.0091C25.6126 27.9087 27.6697 25.7997 27.6697 23.2042C27.6697 20.5762 25.6126 18.4997 23.0091 18.4997H13.5265Z" fill="url(#paint0_linear_26_165)"/>
<path d="M36 18.5C36 28.165 28.165 36 18.5 36C8.83502 36 1 28.165 1 18.5C1 8.83502 8.83502 1 18.5 1C28.165 1 36 8.83502 36 18.5Z" stroke="url(#paint1_linear_26_165)" stroke-width="2"/>
<path d="M47 18.1691V16.2957H56.347C58.7257 16.2957 60.6018 14.3528 60.6018 11.8896C60.6018 9.4264 58.7257 7.48358 56.347 7.48358H47V5.71422H56.347C59.6302 5.71422 62.3104 8.48969 62.3104 11.8896C62.3104 13.9712 61.3388 15.7753 59.8312 16.9201C62.1764 17.9263 63.8515 20.3548 63.8515 23.1996C63.8515 26.9465 60.9033 29.9995 57.2851 29.9995H47V28.2302H57.2851C59.9988 28.2302 62.1429 25.9751 62.1429 23.1996C62.1429 20.3895 59.9988 18.1691 57.2851 18.1691H47Z" fill="#232323"/>
<path d="M84.5881 7.48358H69.3113V5.71422H84.5881C85.7607 5.71422 85.7607 7.51827 84.5881 7.48358ZM69.3113 29.9995V28.2302H84.5881C85.7607 28.2302 85.7607 30.0342 84.5881 29.9995H69.3113ZM69.3113 18.7242V16.9201L80.7019 16.9548C81.8745 16.9201 81.8745 18.7242 80.7019 18.7242H69.3113Z" fill="#232323"/>
<path d="M93.1526 29.6556C92.9225 29.6556 92.8075 29.6556 92.8075 29.6556C92.8075 29.6556 92.6924 29.5586 92.4623 29.3646C92.298 29.1883 92.2158 28.9414 92.2158 28.6239V6.164C92.2158 5.86418 92.3062 5.61727 92.487 5.42327L92.7335 5.13227H93.1526C93.432 5.13227 93.6538 5.23809 93.8182 5.44973C93.999 5.64373 94.0894 5.88182 94.0894 6.164V27.6186H104.468C104.731 27.6186 104.953 27.7156 105.133 27.9096C105.314 28.1036 105.405 28.3417 105.405 28.6239C105.405 28.9061 105.314 29.1442 105.133 29.3382L104.862 29.6556H93.1526Z" fill="#232323"/>
<path d="M128.907 28.28C129.006 28.5446 129.055 28.6768 129.055 28.6768C129.055 28.6768 129.006 28.8091 128.907 29.0736C128.727 29.4969 128.439 29.7086 128.044 29.7086C127.601 29.7086 127.305 29.4969 127.157 29.0736L119.342 8.86237L111.552 29.0736C111.388 29.4969 111.092 29.7086 110.665 29.7086C110.484 29.7086 110.312 29.6556 110.147 29.5498C109.983 29.4264 109.868 29.2676 109.802 29.0736C109.687 28.8091 109.687 28.5446 109.802 28.28L118.48 5.79364C118.496 5.75836 118.504 5.73191 118.504 5.71427C118.521 5.679 118.537 5.64373 118.554 5.60845L118.677 5.44973C118.71 5.44973 118.734 5.42327 118.751 5.37036C118.767 5.35273 118.784 5.34391 118.8 5.34391L118.825 5.31746C118.923 5.24691 119.038 5.20282 119.17 5.18518H119.244C119.26 5.16754 119.285 5.15873 119.318 5.15873H119.342C119.392 5.15873 119.425 5.16754 119.441 5.18518H119.515C119.646 5.20282 119.77 5.24691 119.885 5.31746L119.934 5.37036C119.983 5.42327 120.016 5.44973 120.033 5.44973L120.156 5.60845C120.172 5.64373 120.181 5.679 120.181 5.71427C120.197 5.73191 120.213 5.75836 120.23 5.79364L128.907 28.28Z" fill="#232323"/>
<path d="M135.143 5.47618H142.391C143.262 5.47618 144.092 5.63491 144.88 5.95236C145.686 6.26982 146.392 6.71955 147.001 7.30155C147.625 7.88355 148.118 8.58018 148.48 9.39146C148.858 10.1851 149.047 11.0757 149.047 12.0634V13.3332L148.628 14.4443C148.184 15.5554 147.51 16.4813 146.606 17.222C145.702 17.9451 144.675 18.4036 143.525 18.5976L136.104 18.677V28.8091C136.104 29.0913 136.014 29.3294 135.833 29.5234C135.652 29.7174 135.422 29.8144 135.143 29.8144C134.88 29.8144 134.658 29.7262 134.477 29.5498C134.297 29.3558 134.206 29.1089 134.206 28.8091V16.64H142.489C143.081 16.64 143.656 16.5254 144.215 16.2961C144.79 16.0668 145.3 15.7494 145.743 15.3437L146.384 14.7617L146.779 13.9152C147.042 13.3685 147.173 12.7512 147.173 12.0634C147.173 11.3755 147.033 10.7583 146.754 10.2115C146.491 9.64718 146.138 9.16218 145.694 8.75655C145.25 8.35091 144.741 8.04227 144.166 7.83064C143.59 7.60136 142.999 7.48673 142.391 7.48673H134.206V6.48145C134.206 6.18164 134.288 5.94355 134.453 5.76718C134.634 5.57318 134.864 5.47618 135.143 5.47618ZM147.222 29.9996C146.812 29.9996 146.606 29.9996 146.606 29.9996C146.606 29.9996 146.532 29.8056 146.384 29.4176L142.021 19.9468H144.141L148.061 28.5446C148.192 28.7915 148.208 29.0472 148.11 29.3117L148.011 29.6027L147.765 29.8144C147.6 29.9378 147.42 29.9996 147.222 29.9996Z" fill="#232323"/>
<path d="M164.065 17.8834C163.786 17.8834 163.646 17.8834 163.646 17.8834C163.646 17.8834 163.556 17.7864 163.375 17.5924C163.194 17.3984 163.104 17.1515 163.104 16.8516C163.104 16.5518 163.194 16.3049 163.375 16.1109C163.572 15.9169 163.802 15.8199 164.065 15.8199H173.039C173.302 15.8199 173.523 15.9169 173.704 16.1109C173.901 16.3049 174 16.5518 174 16.8516V25.5287C174 25.6698 173.959 25.8286 173.877 26.0049C173.811 26.1813 173.729 26.3136 173.63 26.4017C171.444 28.5357 168.872 29.6027 165.914 29.6027C164.337 29.6027 162.849 29.2853 161.452 28.6504C160.055 27.9978 158.839 27.116 157.804 26.0049C156.768 24.8938 155.947 23.5976 155.339 22.1161C154.747 20.617 154.451 19.0121 154.451 17.3014C154.451 15.5906 154.747 13.9945 155.339 12.5131C155.947 11.014 156.768 9.70891 157.804 8.59782C158.839 7.48673 160.047 6.61373 161.428 5.97882C162.825 5.32627 164.32 5 165.914 5C168.527 5 170.853 5.84655 172.891 7.53964C173.088 7.69837 173.211 7.92764 173.26 8.22746L173.31 8.67718L173.063 8.99464C172.85 9.27682 172.595 9.41791 172.299 9.41791C172.102 9.41791 171.913 9.33855 171.732 9.17982C169.974 7.76891 168.034 7.06346 165.914 7.06346C164.583 7.06346 163.342 7.33682 162.192 7.88355C161.041 8.41264 160.031 9.14455 159.16 10.0793C158.305 10.9964 157.631 12.081 157.138 13.3332C156.645 14.5677 156.399 15.8905 156.399 17.3014C156.399 18.7299 156.645 20.0703 157.138 21.3225C157.631 22.557 158.305 23.6416 159.16 24.5764C160.031 25.4935 161.041 26.2166 162.192 26.7456C163.342 27.2747 164.583 27.5393 165.914 27.5393C168.264 27.5393 170.319 26.728 172.077 25.1055V17.8834H164.065Z" fill="#232323"/>
<defs>
<linearGradient id="paint0_linear_26_165" x1="8.90723" y1="18.2077" x2="29.3089" y2="18.2077" gradientUnits="userSpaceOnUse">
<stop stop-color="#8B4513"/>
<stop offset="1" stop-color="#D4A017"/>
</linearGradient>
<linearGradient id="paint1_linear_26_165" x1="-1.3548" y1="26" x2="30.7848" y2="28.0217" gradientUnits="userSpaceOnUse">
<stop stop-color="#D4AF37"/>
<stop offset="0.965" stop-color="#780000"/>
</linearGradient>
</defs>
</svg>
