<svg width="257" height="257" viewBox="0 0 257 257" fill="none" xmlns="http://www.w3.org/2000/svg">
<path d="M98.7151 127.918V117.982H147.391C160.333 117.982 170.541 107.677 170.541 94.613C170.541 81.5485 160.333 71.2442 147.391 71.2442H82.9667C82.4132 71.2442 81.965 71.6938 81.9667 72.2473L82.3321 187.655C82.3374 189.315 80.9927 190.664 79.3321 190.664H75.5176C73.8607 190.664 72.5176 189.321 72.5176 187.664V63.8599C72.5176 62.7553 73.413 61.8599 74.5176 61.8599H147.391C165.255 61.8599 179.838 76.5804 179.838 94.613C179.838 105.653 174.552 115.222 166.349 121.294C179.109 126.63 188.223 139.51 188.223 154.599C188.223 174.472 172.182 190.664 152.495 190.664H93.0698C91.4129 190.664 90.0698 189.321 90.0698 187.664V81.3249C90.0698 80.2203 90.9652 79.3249 92.0698 79.3249H145.927C147.584 79.3249 148.927 80.668 148.927 82.3249V85.0574C148.927 86.7142 147.584 88.0574 145.927 88.0574H99.7151C99.1629 88.0574 98.7151 88.5051 98.7151 89.0574V180.28C98.7151 180.832 99.1629 181.28 99.7151 181.28H152.495C167.26 181.28 178.927 169.319 178.927 154.599C178.927 139.694 167.26 127.918 152.495 127.918H98.7151Z" fill="url(#paint0_linear_2_3303)"/>
<path d="M228.841 127.921C228.841 184.21 183.21 229.841 126.921 229.841C70.6314 229.841 25 184.21 25 127.921C25 71.6314 70.6314 26 126.921 26C183.21 26 228.841 71.6314 228.841 127.921Z" stroke="url(#paint1_linear_2_3303)" stroke-width="6"/>
<defs>
<linearGradient id="paint0_linear_2_3303" x1="72.5176" y1="126.262" x2="188.223" y2="126.262" gradientUnits="userSpaceOnUse">
<stop stop-color="#8B4513"/>
<stop offset="1" stop-color="#D4A017"/>
</linearGradient>
<linearGradient id="paint1_linear_2_3303" x1="14.3164" y1="170.456" x2="196.592" y2="181.922" gradientUnits="userSpaceOnUse">
<stop stop-color="#D4AF37"/>
<stop offset="0.965" stop-color="#780000"/>
</linearGradient>
</defs>
</svg>
